<?xml version="1.0" encoding="UTF-8" standalone="no"?>
<!DOCTYPE svg PUBLIC "-//W3C//DTD SVG 1.1//EN" "http://www.w3.org/Graphics/SVG/1.1/DTD/svg11.dtd">
<svg width="100%" height="100%" viewBox="0 0 240 240" version="1.1" xmlns="http://www.w3.org/2000/svg" xmlns:xlink="http://www.w3.org/1999/xlink" xml:space="preserve" xmlns:serif="http://www.serif.com/" style="fill-rule:evenodd;clip-rule:evenodd;stroke-linejoin:round;stroke-miterlimit:2;">
    <g id="Layer1">
        <rect x="0.363" y="0.208" width="239.481" height="239.705" style="fill:white;"/>
        <path d="M247.844,0.208C247.844,-4.211 244.263,-7.792 239.844,-7.792L0.363,-7.792C-4.055,-7.792 -7.637,-4.211 -7.637,0.208L-7.637,239.912C-7.637,244.331 -4.055,247.912 0.363,247.912L239.844,247.912C244.263,247.912 247.844,244.331 247.844,239.912L247.844,0.208ZM8.363,8.208L8.363,231.912L231.844,231.912L231.844,8.208L8.363,8.208Z"/>
    </g>
    <g id="File_processing">
        <g id="File_processing-2">
            <g>
                <path d="M142.032,35.346L178.112,71.436C181.234,74.559 186.304,74.559 189.426,71.438C192.549,68.316 192.549,63.246 189.428,60.124L153.348,24.034C150.226,20.911 145.156,20.911 142.034,24.032C138.911,27.154 138.911,32.224 142.032,35.346Z" style="fill:rgb(255,184,28);"/>
                <path d="M155.69,57.78L183.77,57.78C188.185,57.78 191.77,61.365 191.77,65.78C191.77,70.195 188.185,73.78 183.77,73.78L147.69,73.78C143.272,73.78 139.69,70.198 139.69,65.78L139.69,29.7C139.69,25.285 143.275,21.7 147.69,21.7C152.105,21.7 155.69,25.285 155.69,29.7L155.69,57.78Z" style="fill:rgb(255,184,28);"/>
                <path d="M63.52,97.87L153.79,97.87C158.205,97.87 161.79,94.285 161.79,89.87C161.79,85.455 158.205,81.87 153.79,81.87L63.52,81.87C59.105,81.87 55.52,85.455 55.52,89.87C55.52,94.285 59.105,97.87 63.52,97.87Z" style="fill:rgb(255,184,28);"/>
                <path d="M63.52,127.3L153.79,127.3C158.205,127.3 161.79,123.715 161.79,119.3C161.79,114.885 158.205,111.3 153.79,111.3L63.52,111.3C59.105,111.3 55.52,114.885 55.52,119.3C55.52,123.715 59.105,127.3 63.52,127.3Z" style="fill:rgb(255,184,28);"/>
                <path d="M63.52,155.96L113.6,155.96C118.015,155.96 121.6,152.375 121.6,147.96C121.6,143.545 118.015,139.96 113.6,139.96L63.52,139.96C59.105,139.96 55.52,143.545 55.52,147.96C55.52,152.375 59.105,155.96 63.52,155.96Z" style="fill:rgb(255,184,28);"/>
            </g>
        </g>
        <path d="M41.32,202.24L129.88,202.24L129.88,218.24L39.32,218.24C31.64,218.24 25.32,211.92 25.32,204.24L25.32,35.69C25.32,28.01 31.64,21.69 39.32,21.69L151.004,21.69L191.77,62.467L191.77,132.19L175.77,132.19L175.77,69.093L144.376,37.69L41.32,37.69L41.32,202.24Z" style="fill:rgb(255,184,28);"/>
    </g>
    <path d="M188,135L188.09,134.998C193.883,134.998 198.65,139.765 198.65,145.558C198.65,145.616 198.65,145.673 198.65,145.6L198.649,148.697L199.497,149.164L200.348,149.661L203.454,147.885C205.064,146.954 206.892,146.463 208.752,146.463C212.538,146.463 216.047,148.496 217.916,151.756L226.916,167.326C226.934,167.357 226.951,167.387 226.968,167.418C227.855,168.999 228.321,170.783 228.321,172.597C228.321,176.435 226.234,179.985 223.01,181.776L220.298,183.352C220.317,183.821 220.327,184.29 220.33,184.759C220.33,184.776 220.33,184.793 220.33,184.81L220.325,185.293L223.407,187.064L223.38,187.049C228.424,189.922 230.213,196.435 227.346,201.482C227.336,201.499 227.326,201.516 227.316,201.534C227.316,201.534 218.316,217.104 218.404,216.948C216.55,220.326 212.99,222.434 209.137,222.434C207.311,222.434 205.515,221.961 203.927,221.061C203.903,221.047 203.879,221.033 203.855,221.02L201.158,219.454L200.369,219.938L199.49,220.444L199.49,224C199.49,229.799 194.719,234.57 188.92,234.57C188.906,234.57 188.893,234.57 188.91,234.57C188.91,234.57 170.96,234.57 170.991,234.57C170.978,234.57 170.964,234.57 170.95,234.57C165.157,234.57 160.39,229.803 160.39,224.01C160.39,223.996 160.39,223.982 160.39,224L160.391,220.863L159.543,220.396L158.692,219.899L155.586,221.675C153.976,222.606 152.148,223.097 150.288,223.097C146.502,223.097 142.993,221.064 141.124,217.804C141.124,217.804 132.124,202.234 132.11,202.209C129.228,197.182 130.979,190.677 135.994,187.775L138.69,186.218C138.67,185.734 138.661,185.248 138.66,184.76L138.665,184.291L135.631,182.561C132.276,180.695 130.189,177.145 130.189,173.307C130.189,171.493 130.655,169.709 131.542,168.128C131.559,168.097 131.576,168.067 131.594,168.036C131.594,168.036 140.594,152.466 140.529,152.581C142.395,149.226 145.945,147.139 149.783,147.139C151.597,147.139 153.381,147.605 154.962,148.492C154.999,148.512 155.035,148.533 155.07,148.554L157.756,150.115L158.55,149.629L159.43,149.124L159.43,145.601C159.43,145.588 159.43,145.574 159.43,145.56C159.43,139.767 164.197,135 169.99,135C170.004,135 170.018,135 170,135L188,135ZM176.39,224.008L176.39,224.031L176.39,224.008ZM170.952,218.57L170.929,218.57L170.952,218.57ZM185.122,211.477C183.294,211.871 181.402,212.079 179.464,212.08C179.197,212.08 178.931,212.067 178.667,212.039C177.281,212.001 175.921,211.857 174.594,211.616C175.7,213.27 176.345,215.234 176.388,217.303C176.389,217.358 176.39,217.414 176.39,217.47L176.39,218.57L183.49,218.57L183.49,217.062C183.5,215.046 184.085,213.119 185.122,211.477ZM188.918,218.57L188.941,218.57L188.918,218.57ZM153.761,194C152.888,195.72 151.548,197.204 149.84,198.251C149.781,198.287 149.722,198.322 149.662,198.357L148.689,198.919L152.281,205.134L153.616,204.371C155.342,203.386 157.273,202.929 159.178,202.982C156.834,200.385 154.977,197.34 153.761,194ZM205.373,193.204C204.245,196.651 202.443,199.805 200.125,202.506C202.178,202.351 204.276,202.792 206.14,203.847C206.165,203.862 206.19,203.876 206.215,203.89L207.157,204.437L210.74,198.238L209.483,197.516C209.446,197.494 209.409,197.472 209.371,197.45C207.638,196.416 206.269,194.932 205.373,193.204ZM179.927,196.068C185.887,195.816 190.71,190.837 190.71,184.82L190.71,184.76C190.71,178.566 185.614,173.47 179.42,173.47C173.226,173.47 168.13,178.566 168.13,184.76C168.13,190.954 173.226,196.05 179.42,196.05C179.589,196.05 179.758,196.055 179.927,196.068ZM206.71,184.749L206.71,184.76C206.71,184.765 206.71,184.769 206.71,184.749ZM151.753,165.132L148.187,171.302L149.482,172.04C149.532,172.068 149.582,172.098 149.631,172.127C151.302,173.128 152.631,174.547 153.523,176.203C154.653,172.822 156.432,169.728 158.709,167.071C156.68,167.208 154.611,166.764 152.77,165.723C152.743,165.707 152.716,165.692 152.69,165.676L151.753,165.132ZM206.759,164.426L205.424,165.189C203.647,166.203 201.653,166.658 199.693,166.572C202.07,169.214 203.942,172.317 205.152,175.724C206.03,173.926 207.416,172.375 209.197,171.3C209.234,171.278 209.272,171.255 209.31,171.234L210.346,170.631L206.759,164.426ZM175.43,151L175.43,152.508C175.42,154.509 174.844,156.423 173.82,158.057C175.631,157.672 177.504,157.47 179.42,157.47C181.134,157.47 182.814,157.632 184.445,157.942C183.339,156.288 182.695,154.325 182.652,152.257C182.651,152.202 182.65,152.146 182.65,152.09L182.65,151L175.43,151ZM169.992,151L169.969,151L169.992,151ZM188.09,150.998C188.154,150.998 188.218,150.997 188.282,150.995L188.09,150.998ZM175.43,145.562L175.43,145.539L175.43,145.562Z" style="fill:rgb(255,184,28);"/>
</svg>
